<svg id="wave" style="transform:rotate(180deg); transition: 0.3s" viewBox="0 0 1440 490" version="1.1" xmlns="http://www.w3.org/2000/svg"><defs><linearGradient id="sw-gradient-0" x1="0" x2="0" y1="1" y2="0"><stop stop-color="rgba(40.614, 126.066, 214.338, 1)" offset="0%"></stop><stop stop-color="rgba(37.825, 114.57, 193.847, 1)" offset="100%"></stop></linearGradient></defs><path style="transform:translate(0, 0px); opacity:1" fill="url(#sw-gradient-0)" d="M0,196L60,196C120,196,240,196,360,163.3C480,131,600,65,720,98C840,131,960,261,1080,310.3C1200,359,1320,327,1440,261.3C1560,196,1680,98,1800,73.5C1920,49,2040,98,2160,171.5C2280,245,2400,343,2520,318.5C2640,294,2760,147,2880,138.8C3000,131,3120,261,3240,302.2C3360,343,3480,294,3600,245C3720,196,3840,147,3960,179.7C4080,212,4200,327,4320,343C4440,359,4560,278,4680,261.3C4800,245,4920,294,5040,277.7C5160,261,5280,180,5400,187.8C5520,196,5640,294,5760,277.7C5880,261,6000,131,6120,65.3C6240,0,6360,0,6480,24.5C6600,49,6720,98,6840,114.3C6960,131,7080,114,7200,138.8C7320,163,7440,229,7560,253.2C7680,278,7800,261,7920,228.7C8040,196,8160,147,8280,130.7C8400,114,8520,131,8580,138.8L8640,147L8640,490L8580,490C8520,490,8400,490,8280,490C8160,490,8040,490,7920,490C7800,490,7680,490,7560,490C7440,490,7320,490,7200,490C7080,490,6960,490,6840,490C6720,490,6600,490,6480,490C6360,490,6240,490,6120,490C6000,490,5880,490,5760,490C5640,490,5520,490,5400,490C5280,490,5160,490,5040,490C4920,490,4800,490,4680,490C4560,490,4440,490,4320,490C4200,490,4080,490,3960,490C3840,490,3720,490,3600,490C3480,490,3360,490,3240,490C3120,490,3000,490,2880,490C2760,490,2640,490,2520,490C2400,490,2280,490,2160,490C2040,490,1920,490,1800,490C1680,490,1560,490,1440,490C1320,490,1200,490,1080,490C960,490,840,490,720,490C600,490,480,490,360,490C240,490,120,490,60,490L0,490Z"></path><defs><linearGradient id="sw-gradient-1" x1="0" x2="0" y1="1" y2="0"><stop stop-color="rgba(39.834, 133.944, 198.401, 1)" offset="0%"></stop><stop stop-color="rgba(101.127, 159.236, 227.999, 1)" offset="100%"></stop></linearGradient></defs><path style="transform:translate(0, 50px); opacity:0.9" fill="url(#sw-gradient-1)" d="M0,0L60,0C120,0,240,0,360,16.3C480,33,600,65,720,122.5C840,180,960,261,1080,245C1200,229,1320,114,1440,98C1560,82,1680,163,1800,204.2C1920,245,2040,245,2160,236.8C2280,229,2400,212,2520,179.7C2640,147,2760,98,2880,114.3C3000,131,3120,212,3240,261.3C3360,310,3480,327,3600,334.8C3720,343,3840,343,3960,310.3C4080,278,4200,212,4320,155.2C4440,98,4560,49,4680,73.5C4800,98,4920,196,5040,269.5C5160,343,5280,392,5400,383.8C5520,376,5640,310,5760,294C5880,278,6000,310,6120,310.3C6240,310,6360,278,6480,245C6600,212,6720,180,6840,163.3C6960,147,7080,147,7200,122.5C7320,98,7440,49,7560,73.5C7680,98,7800,196,7920,228.7C8040,261,8160,229,8280,196C8400,163,8520,131,8580,114.3L8640,98L8640,490L8580,490C8520,490,8400,490,8280,490C8160,490,8040,490,7920,490C7800,490,7680,490,7560,490C7440,490,7320,490,7200,490C7080,490,6960,490,6840,490C6720,490,6600,490,6480,490C6360,490,6240,490,6120,490C6000,490,5880,490,5760,490C5640,490,5520,490,5400,490C5280,490,5160,490,5040,490C4920,490,4800,490,4680,490C4560,490,4440,490,4320,490C4200,490,4080,490,3960,490C3840,490,3720,490,3600,490C3480,490,3360,490,3240,490C3120,490,3000,490,2880,490C2760,490,2640,490,2520,490C2400,490,2280,490,2160,490C2040,490,1920,490,1800,490C1680,490,1560,490,1440,490C1320,490,1200,490,1080,490C960,490,840,490,720,490C600,490,480,490,360,490C240,490,120,490,60,490L0,490Z"></path></svg>